<?xml version="1.0" ?><svg viewBox="0 0 60 60" xmlns="http://www.w3.org/2000/svg"><title/><g id="text"><text font-family="MyriadPro-Regular, Myriad Pro" font-size="9" transform="translate(14.26172 67.39014)"/></g><g data-name="Layer 1" id="Layer_1"><path d="M59.707,58.293l-6.42139-6.42139A10.91173,10.91173,0,0,0,54.94934,47H57a1,1,0,0,0,0-2H54.94934a10.99718,10.99718,0,0,0-21.44946-2.27979A4.98458,4.98458,0,0,0,30,41a4.98458,4.98458,0,0,0-3.49988,1.72021A10.99718,10.99718,0,0,0,5.05066,45H3a1,1,0,0,0,0,2H5.05066a10.91173,10.91173,0,0,0,1.6637,4.87158L.293,58.293A.99989.99989,0,1,0,1.707,59.707l6.23944-6.23944A10.98379,10.98379,0,0,0,27,46a3.63409,3.63409,0,0,1,3-3,3.63409,3.63409,0,0,1,3,3,10.98379,10.98379,0,0,0,19.05353,7.46759L58.293,59.707A.99989.99989,0,0,0,59.707,58.293ZM16,55a9,9,0,1,1,9-9A9.01047,9.01047,0,0,1,16,55Zm28,0a9,9,0,1,1,9-9A9.01047,9.01047,0,0,1,44,55Z"/><path d="M16,51a4.98136,4.98136,0,0,1-4.93066-4.166,1.00012,1.00012,0,1,0-1.97266.33105A6.97629,6.97629,0,0,0,16,53a1,1,0,0,0,0-2Z"/><path d="M44,51a4.98136,4.98136,0,0,1-4.93066-4.166,1.00012,1.00012,0,1,0-1.97266.33105A6.97629,6.97629,0,0,0,44,53a1,1,0,0,0,0-2Z"/></g></svg>